/* XPM */
static char *result[] = {
/* columns rows colors chars-per-pixel */
"64 64 256 2 ",
"   c #030202",
".  c #0B0403",
"X  c #0B0A05",
"o  c #04040A",
"O  c #0B0A09",
"+  c #150B07",
"@  c #14120D",
"#  c #1B160A",
"$  c #141413",
"%  c #1B1A16",
"&  c #0D1210",
"*  c #211C0E",
"=  c #261408",
"-  c #35190A",
";  c #251D14",
":  c #30110E",
">  c #1E211C",
",  c #252213",
"<  c #2B251A",
"1  c #2D2A1C",
"2  c #282517",
"3  c #332C1C",
"4  c #372919",
"5  c #372812",
"6  c #2C2C24",
"7  c #272724",
"8  c #352D22",
"9  c #3B3323",
"0  c #363529",
"q  c #383934",
"w  c #2D312F",
"e  c #441E08",
"r  c #493519",
"t  c #59361C",
"y  c #4D2910",
"u  c #6A3415",
"i  c #473A29",
"p  c #4C3A2B",
"a  c #733924",
"s  c #6E1E12",
"d  c #3E4035",
"f  c #76471C",
"g  c #6A461D",
"h  c #47442C",
"j  c #56452A",
"k  c #474538",
"l  c #564C36",
"z  c #59533B",
"x  c #4E523C",
"c  c #6A4626",
"v  c #764925",
"b  c #67553B",
"n  c #735333",
"m  c #4A4C42",
"M  c #4D5247",
"N  c #575948",
"B  c #54544B",
"V  c #655B47",
"C  c #775C49",
"Z  c #655B56",
"A  c #5C6156",
"S  c #6A6248",
"D  c #726D54",
"F  c #72766C",
"G  c #485D68",
"H  c #883E1A",
"J  c #8F491B",
"K  c #854627",
"L  c #975828",
"P  c #885B36",
"I  c #945A37",
"U  c #8F4F30",
"Y  c #A65A26",
"T  c #A55935",
"R  c #B45D2E",
"E  c #9A6638",
"W  c #976632",
"Q  c #A6662C",
"!  c #B8682A",
"~  c #A56B37",
"^  c #B76A37",
"/  c #AA7239",
"(  c #B77539",
")  c #B1752D",
"_  c #C6793A",
"`  c #C06634",
"'  c #8F5841",
"]  c #9A6845",
"[  c #917152",
"{  c #AA6646",
"}  c #B76848",
"|  c #A97648",
" . c #B77847",
".. c #AA7855",
"X. c #B87856",
"o. c #A76B54",
"O. c #857E61",
"+. c #A95C45",
"@. c #C67946",
"#. c #D77B4A",
"$. c #C57A56",
"%. c #D27A55",
"&. c #C97D61",
"*. c #7D8274",
"=. c #CD853C",
"-. c #B7844B",
";. c #BA8657",
":. c #B18452",
">. c #938867",
",. c #9C936D",
"<. c #9B9575",
"1. c #898773",
"2. c #A39C78",
"3. c #B88D6B",
"4. c #B0A37B",
"5. c #8B805C",
"6. c #CB8444",
"7. c #C88549",
"8. c #D48B4C",
"9. c #DC8B4D",
"0. c #D48547",
"q. c #D9914D",
"w. c #C98958",
"e. c #D48C53",
"r. c #DC8E53",
"t. c #D88757",
"y. c #DD9254",
"u. c #DB935B",
"i. c #D69659",
"p. c #C7955B",
"a. c #E58A56",
"s. c #E4945B",
"d. c #EA945D",
"f. c #E69858",
"g. c #E4924F",
"h. c #EAA25C",
"j. c #F4A65D",
"k. c #CA8A66",
"l. c #D78866",
"z. c #C99567",
"x. c #D99767",
"c. c #CE9973",
"v. c #E78C67",
"b. c #EC9B64",
"n. c #EC9D6B",
"m. c #E69765",
"M. c #F49D6B",
"N. c #F39A66",
"B. c #EA9975",
"V. c #F49976",
"C. c #ED8E73",
"Z. c #D7A778",
"A. c #D5A66F",
"S. c #EBA26C",
"D. c #EAA467",
"F. c #F3A36C",
"G. c #F4A868",
"H. c #FBB46C",
"J. c #EDA473",
"K. c #E9A876",
"L. c #F3A574",
"P. c #F4AB74",
"I. c #FAAB75",
"U. c #F5AC7B",
"Y. c #FBAD7B",
"T. c #F8A578",
"R. c #FCB374",
"E. c #FDBB74",
"W. c #FBB37B",
"Q. c #F8B679",
"!. c #E8B27D",
"~. c #FDC27B",
"^. c #FBC275",
"/. c #B8803F",
"(. c #79858B",
"). c #7A95A5",
"_. c #8F958F",
"`. c #AAA685",
"'. c #B3AC84",
"]. c #B6AB89",
"[. c #BAB58A",
"{. c #B7B288",
"}. c #B2AE96",
"|. c #949AA3",
" X c #9AA7AE",
".X c #A5A8AA",
"XX c #ABB5B7",
"oX c #B6BAB9",
"OX c #B0B3AB",
"+X c #A0A394",
"@X c #F59C81",
"#X c #CAB388",
"$X c #FBAB85",
"%X c #E9B685",
"&X c #FCB383",
"*X c #FDBB83",
"=X c #FCBC8B",
"-X c #F8B787",
";X c #FABB93",
":X c #F1AC85",
">X c #C7B8AE",
",X c #BAC4B7",
"<X c #FCC283",
"1X c #FCC48B",
"2X c #FDCA8C",
"3X c #FCCA86",
"4X c #FCC494",
"5X c #FCCB94",
"6X c #FCCD9B",
"7X c #F8C596",
"8X c #FCD29C",
"9X c #FBD798",
"0X c #F1CB90",
"qX c #C5CEB6",
"wX c #CBCEB4",
"eX c #C9CEBA",
"rX c None",
"tX c None",
"yX c #C7D0B8",
"uX c #D2D4B6",
"iX c #D2D5B9",
"pX c None",
"aX c #CACAAC",
"sX c #FCD5A2",
"dX c #FBDBA4",
"fX c #FBDCAB",
"gX c #F9D5A7",
"hX c #F3CFAB",
"jX c #FBE3A9",
"kX c #FCE8B6",
"lX c #F6ECAF",
"zX c #FBE399",
"xX c #ABBAC5",
"cX c #B5BEC5",
"vX c #9CAEC0",
"bX c #B4C2CB",
"nX c #BBC4C9",
"mX c #BAC8D2",
"MX c #ADC2CB",
"NX c #C4C7C9",
"BX c #C6CDD3",
"VX c #C9D4D6",
"CX c #D5D9D9",
"ZX c #D2D7C4",
"AX c #DEE3CF",
"SX c #FCF5C7",
"DX c #F8EECB",
"FX c #D9E5E7",
"GX c #DAECF5",
"HX c #E4EAEA",
"JX c #ECFBFA",
"KX c #EAF5F4",
"LX c #F3FDFD",
"PX c #F7FDF8",
"IX c #EDF2EE",
"UX c #C0D3E3",
/* pixels */
"[.S . V {.`.`.,.>.>.2.5.D S z z h 9 5 9 l l S S S b z l j z h x h h h h i 9 9 9 x *.4.uXuXaXrXpXpXpXrXrXyXpXuXpXuXyXyXyXrXuXrXrX",
"#X`.< , 2.4.,.>.>.>.5.D S z h 9 3 5 , 4 h j j b b c j r j 5 3 5 9 9 h k B k 3 1 2 1 h *.aXpXrXrXpXpXuXyXyXrXuXpXpXyXyXrXuXrXuXrX",
"[.[.V . V ,.>.,.,.D D z h 3 , * # = , 5 5 t j b b n n j r r 5 3 9 3 9 5 0 h 9 3 0 1 * # h 2.pXpXpXpXuXrXyXpXuXpXpXrXyXyXpXyXuXrX",
"[.[.2., 5 F ,.<.D D b j 5 # + + + # = = 5 t g n n n n c r r j r 5 , , 3 3 h d * , 0 2 # * , *.aXpXpXpXyXyXpXuXuXpXyXqXrXpXpXpXrX",
"[.[.'.x + S 2.>.S z i 8 # + = + = = - e y g g n v n f n g n g r y - # # , 8 k 0 , 3 3 1 * , X x [.pXpXyXyXpXpXpXpXyXyXrXrXrXpXrX",
"[.[.[.D & h ,.D l 8 ; @ + + = = - r g P f g P n | W 5.W W ) W f f t 5 = , < 0 9 0 1 , , * 1 1 X x qXpXpXyXpXrXpXpXyXyXpXrXpXpXrX",
"[.[.{.>.1 2 D x 0 # + . ; = = e g W /.-./ W | E | :.:.:.:././.) ~ W g - = 9 h h 9 3 1 2 , , < 1 * *.pXyXpXpXyXrXpXyXyXrXuXrXrXrX",
"[.4.4.2.h $ k k = + + ; - e f / -.:.-.p.;.-.p.;.p.:./.p.p.p.p.=.=.=.Q v - # q k 9 , * 2 , 2 * * , & 2.pXyXpXpXpXrXyXyXrXuXuXuXrX",
"{.{.`.2.z % 8 < ; @ = = y | i.A.#Xp.z.A.!.Z.A.z.3.A.i.i.h.h.f.g.=.q.=.) f - , N k 0 < , 1 1 2 # # @ 3 OXpXuXuXuXpXyXyXpXuXrXpXrX",
"{.#X2.,.z , 3 p ; @ . : ;.%X%X;X;XA.!.%X0X0X#X#XZ.%X!.D.P.G.G.j.h.q.j.=./.g - h N 3 9 0 # # , ;   # @ N pXuXuXuXrX,XrXrXuXrXuXyX",
"{.{.2.O.l 2 8 8 o O : ;.~.5XfX6X<X~.3X0XlXhX#X0X0X7X7X:XQ.H.H.H.j.g.g.g.y.-.n r k p 9 1 6 6 + . X X X * `.pXuXuXrXyXyXrXuXrXrXrX",
"4.'.>.O.x < q ; $ : $.1X0XdXgX8X2X2XlXkXDXkXjXhXfXhX6XQ.Q.H.I.H.j.h.h.j.h.y./ j z j h 2 , p 7 .     X   F pXuXuXrXyXrXrXuXuXrXyX",
"[.4.5.D x 7 8 + + ] 3X3X9X9XzX9X9XzXSXPXPXkXkXkXfX8X5X*XE.R.R.H.j.h.h.H.h.h.6.W b p 8 8 < ; 8 +     X @ 1 ,XuXuXrXqXrXuXuXuXrXaX",
"[.,.D V i 8 ; + v ^.^.3X9X9XzX9XzXzXlXSXSXlXlXSXkX5X3X<XE.R.R.R.j.h.h.H.H.h.f./ n p 9 1 4 ; @ +   O   X X *.pXuXrXqXyXrXuXuXrXqX",
"'.>.D z 4 4 ; y i.^.3X3X2XdXjXjXjXjXjXdXjX9XlXkX9X1X1X*X*X*XW.R.j.h.H.!.!.j.h.6.E j i 4 1 < + o       X X 0 rXrXyXqXrXrXuXuXrXaX",
"4.O.C p 4 7 5 ~ H.^.~.3X9XjXkXSXkXjX9X9X9XkXlXjX0X0X<X<X1X=XE.W.H.h.j.^.H.j.h.p.| a i 4 < < # + o     X X > }.pXaXqXrXrXuXuXrXrX",
"{.D V 9 4 : v S.E.^.~.3X9XkXkXSXSXlXdXjXdX9X9X9X2X1X1X*X*X*X*X*XR.P.P.Q.H.H.D.q.7.v t 8 4 8 ; $ .     X & & 2.pXrXyXtXuXuXuXuXrX",
"'.S i 4 8 e @.H.^.~.~.<X8XSXSXDXkXjXkXkXjX5X2X2X2X2X1X*XQ.U.&X*XW.Y.R.E.!.G.h.f.7.I a r ; ; + ; o       X & A pXyXyXtXuXuXuXrXwX",
"2.d 5 i - f D.H.~.~.<X<XsXSXSXkXfXdXjXkXjX5X5X2X2X1X1X*XW.P.W.W.Y.Y.Q.U.Q.G.f.f._ Q K t 5 * . . .   $ % > & N rXyXqXrXuXuXuXrXwX",
"i 5 i 4 = ( ^.H.~.~.<X<X6XDXSXkXdXdXjXfXgX8X5X5X2X1X1X*XW.Q.*X*X&XQ.Q.E.P.D.f.q.=.! K t 4 * .     & 2 F *.N x OXpXyXrXuXuXuXwXwX",
"3 p p : 5 i.~.E.~.~.<X<X4XkXSXdX8XgXgXsX8X6X6X8X5X1X1X*XW.W.*XQ.W.&XQ.W.G.b.a.8.=.! L u r * . . X % 6 D M N *.x 1.tXuXuXuXuXwXwX",
"O.p i = u P.^.E.E.<X<X<X4XgXfX6X8X8XsXsX8X8X8X5X5X2X1X*XE.W.R.Q.H.Q.&XY.M.d.r.0._ ( Q g i # o   $ 6 0 q 9 > x A m N aXuXuXuXwXwX",
"].r < = n E.^.E.E.~.<X<X*X7X6X;X4X7X8X8X8XsX8X8X8X5X2X<XW.R.P.Q.R.U.U.K.N.g.g.=._ _ ! f e # o O $ m w % 2 A *.x A m N ZXuXuXwXwX",
"].b r = E E.E.^.E.~.~.*XQ.-X-X&X4X6XsXdX8XdXsXsX8X8X4X1XW.W.I.I.P.W.S.b.g.g.9.0.=.` ! J y @   % 7 q 6   x *.*.0 k Z * 1.AXwXrXeX",
"[.D y ; :.E.~.Q.E.E.~.5X6X6X6X5X8XdXfXfXfXjXjXsX9X6X6X4X1X*XQ.U.U.:XL.m.y.q.9.0.0.@.! J u + . % 7 q 7 X N *.F 0 x N q 2 tXrXwXwX",
"#X5.5 5 | E.E.E.R.E.~.5XfXfXfXfXjXfXfXkXkXjXdXsX6X4X4X4X7X%XZ.Z.z.c.A.x.e.i.i.8.6.6._ Y u + o ; w q > @ z N M w M M M   1.AXaXwX",
"#X,.p - ..E.E.Q.H.Q.3XsXjXfXfXfXdXgX8XfXfX6X5X7X7X;X%XZ.c.3.3.z.;...|  . .7.e.e.0.7.@.! u + + 7 w q & 2 V N m 0 m N N X m ZXwXwX",
"[.2.b - | H.E.E.R.~.3X8X6X4X4X4X5X5X5X4X=X=X4X;XZ.;...o.] ] ..;.;.k.;. .@.7.e.9.r.e._ ! Y : + 7 q q O 1 V d d 9 N N A % , aXwXwX",
"{.4.D = | H.H.R.Q.!.!.:XK.K.:X&X=X=X=X=X&XW.&XK.w.;.;.-.w.k.k.z.z.i.e.w.w.w.e.a.r.8.@.^ Y e % 0 0 q O ; l h k w m N A > @ OXZXuX",
"[.[.*.1 ] H.P.m.c.z.;.[ W E w.B.Y.W.&XW.Y.Y.L.S.x.x.x.S.K.U.&X$XL.u.u.w.e.e.u.r.y.0.=.( ! u $ % w < O % j 3 w w m N A > X F OXuX",
"[.+X*.d ] Q.S.z.3.:.] P P I ~ w.n.I.I.I.I.I.M.m.m.s.n.F.L.L.Y.Y.M.r.r.y.@.0.s.u.q.0._ _ ` J ; > 6 % O + l 1 6 7 k M B >   q 1 OX",
"{.*.*.x [ P.p.c.z.w.;.w.w.x.i.t.x.n.T.L.L.F.N.s.m.m.F.b.s.b.J.Y.F.s.r.e.8.8.8.8.=.=._ _ ` L - % ; % X . h % > > d m M % & A 6 <.",
"_.F 1.k b Q.A.K.K.K.:XU.!.-XU.n.s.v.M.M.M.M.b.a.a.d.N.d.b.v.l.X.{ ^ ! ( ( _ 9.a.9.9._ ` ` ! y = @ # @   8 : % > q m k $   A w D ",
".XF _.k z :XS.A.D.J.U.$XI.L.T.I.N.s.v.M.J.L.d.g.0.0.0._ Y Y v U { @.#.e.r.s.s.a.9.a._ _ ! Y a + & X $   ; < @ % 7 m q O O 6 d }.",
"*.D F m l :XK.w.D.S.T.&X&XY.L.G.G.s.a.L.=X*XN.a.9._ _ ( 7.m.J.L.J.d.s.b.S.b.s.a.d.g.0.#.` Y L - o . @ & o 0 o & % q w   $   O d ",
"& q k B 0 K.K.i.P.U.K.l. .{ @.@.e.r.g.Y.4X1XI.d.d.f.b.I.K.m.s.9.9.#.n.L.S.n.b.f.d.g.g.8.` ! Y y o o O % o $ $ $ $ 7 O $ > X 7 * ",
"X w 6 m w z.U.K.w.{ U U I ..$.X.t.s.d.I.6X4XL.a.d.H.F.L.M.M.F.L.J.V.&X$XT.L.D.b.f.d.g.9._ Q Y K # o o $ O   & w % > d d X > d 6 ",
"k 6 # 0 7 X.E.K.s.S.U.W.U.S.B.S.B.S.G.I.fX6XT.N.d.G.W.U.Y.Y.&X-X4X=X=X;X=XI.N.b.f.a.r.9.=.! Y Y y . o . @ o & & $ > d >   > d d ",
"8 ; @ # $ ] <X<XQ.G.g.0.=.a.m.L.Y.-XH.Y.fX6XI.N.b.G.*X4X;X=X*X=X=X&X;X;X;X&XI.b.d.y.9.q.=.^ Q Q U : . . O % q w > 7 % o   7 & N ",
"# % % # o P 3X%X<XU.n.F.M.G.F.Y.;X1XU.=XjX8XI.G.G.P.&X=X=X&X=X=X&X=X6XgX;XY.I.N.d.y.9.0.6.( ~ Q Y H e + + + $ $ O o     o $ M }.",
"3 @ + * o n 1X%XW.*X&X&XU.U.$X=X;X4X*X4XkX6X&XN.D.b.L.n.b.N.V.&X$X=X4X6X=XT.N.G.N.q.9.0.=.( / / ) L K a ' :               m AXuX",
"N + X * o ] <XR.R.1X6X7X4X4X;X;X&XY.&XgXkX7XY.N.b.S.F.N.v.v.a.N.M.T.T.Y.I.M.N.N.d.9.8.6.6./.( ( ) W W U 0 .             7 OXtXwX",
"2.# O % O | E.Q.1XsXdX6X4X=X-X&XV.T.-XgXgX;XY.b.L.W.I.d.#.N.C.#.#.v.N.M.M.V.N.b.m.y.e.6.6.7.-.) / ~ { n o o o           +XZXwXuX",
"#Xx   # $ ..~.<X1X;X=X&X&X$XT.M.M.=X-X7X7X;XY.M.Y.W.T.C.#.%.v.v.%.#.#.d.N.C.b.d.s.y.e.8.6.6.=./ ) / ~ ] #   .         q ZXqXeXwX",
"{.`.; . % 3.*X-XR.Y.T.M.M.N.v.a.M.1XW.W.&X-XT.n.V.v.#.%.@.C.v.l.V.V.%.#.a.s.m.s.y.t.e.0.6.8.=.) ) / ~ / l $   o     &  XmX,X,X,X",
"'.}.<.l   [ &XL.I.I.M.N.N.a.#.#.m.W.W.I.F.F.M.t.L T R %.v.l.k.k.k.&.k.w.%.d.a.r.r.r.9.q.q.8.7.( Q W Q E F F 7     & ).MX.XXX,X,X",
"'.'.}._.w p &XF.N.d.#.a.#.#.#.#.M.v.T { &.l.%.J I k.X.&.X.X.;.&.X.o.] X. .t.b.y.y.y.9.y.q.q.6./.Q W ~ W V F *.w O G ). X XOX,XMX",
"'.'.'.}.+XC x.N.a.#.a.N.#.#.#.%.l.c.o.s s K K T I { ..X.+.+.X.o...{ I I | } b.s.a.y.9.f.q.q.7./ Q Q W I k G _._.G G  XMX.XXXbXbX",
"'.].].'.}.].x.s.r.d.M.r.^ } (  .X.X.3.o.' a &.} H +.&.l.X.} $.$.} X.o.I E  .m.d.f.y.g.i.8.q.6./ W ~ I U p G .X.X.X XXX X XXXcXUX",
"].].].].4.`.A.u.b.M.a._ ~ I ] +.] o.] ..+.+.&.%.%.@XC.C.%.$.} } } ' K I  .7.b.b.f.f.f.q.q.8.7./ ~ Q W U x (..X.XoXXX|._.|..XcXUX",
"4.`.`.`.`.+X4.i.s.N.a.R ] o.P I  .$.$.l.%.%.%.%.%.@.} ^ T $.~ T H s U ^  .8.b.b.s.y.f.y.e.7.( E ~ E L n Z |.XXcXcXXX_.(. XXXUXGX",
"qXwXNXZXCXFXhXz.s.n.v.T I U I +.+.{ T R @.R #.` } ;.w.%XZ.6XA.k.{ } m.e.y.m.N.b.f.s.f.y.0.-.~ W W E L P F  XxXcXnXcX X(.|.cXFXGX",
"JXLXJXJXJXLXKX:Xu.m.M.} K L } U H : e t.A.A.%X%X5XlXhXsX;.;.X.{ &.m.d.b.D.D.b.b.f.f.a.8.7.( Q | W W I D |.vXcXcXcXcXoX|.XXBXHXKX",
"JXKXJXJXJXPXJXhXi.u.s.n.t.@.t.%.} a : &.gXjXjX0XZ.Z...X.} X.&.l.C.v.M.b.x.s.b.s.u.s.i.8.7./ ~ ~ W I ] F vXvXNXcXxXnXcX.XXXCXGXKX",
"JXJXLXLXPXLXPXDXA.u.i.n.T.m.b.M.B.&.U v :.z.l.$.X.&.l.@XC.%.v.C.m.n.J.n.x.u.m.e.u.e.8.7. .( | ~ P | C |.cXxXxXcXbXnXoXOXbXFXGXJX",
"LXLXLXLXPXLXJXPXaXi.y.x.K.T.L.T.$X@X@XB.:X;X;X;X=X$X$X@Xv.&.B.B.m.b.J.J.S.S.u.e.e.8.w.7. .| / W ] P F MXcXcXxXcXnXNXoXoXNXFXJXJX",
"PXLXPXPXPXPXIXFXHXZ.z.x.m.U.U.U.K.L.C.C.V.@X@X@X@XC.C.C.V.V.B.B.n.M.J.P.J.h.w.e.7.e.w.-. .~ ~ ] [ S xXmXMXcXcXbXnXnXoXoXCXKXJXJX",
"PXPXPXLXKXIXHXHXFXhXc.v.s.S.U.J.L.T.Y.B.C.C.C.C.C.&.C.v.B.B.L.L.L.F.J.J.D.i.7.7.e.p.-. . .E / ] Z .XmXbXbXMXcXmXNXnXOXNXHXJXJXJX",
"LXPXPXLXHXFXCXCXBXBX}.k.u.x.K.U.Y.L.K.V.C.v.l.l.%.v.l.B.U.U.L.J.J.S.L.J.x.i.7.w.8.7.-.X.| | [ S .XBXnXbXMXbXbXmXNXNXOXVXJXJXJXLX",
"LXLXKXIXCXCXCXNXNXcX>X..z.u.x.T.Y.W.:XK.B.B.V.B.C.:X:X$X$XT.n.F.F.F.L.S.x.7.-.7.-. .X.| | ..C |.BXcXnXbXbXmXNXNXNXcXoXGXJXLXLXLX",
"JXIXHXCXCXNXNXNXNXnXoX(.[ k.k.n.&X&X&X-X$X$X$X;X;X$X$X$XT.L.L.L.F.L.J.x.w. .-.-.;.| | ....C .XBXcXcXUXcXNXBXBXmXcXoXBXKXLXLXLXLX",
"IXHXCXCXNXNXNXNXNX>XcX.X.X>Xk.w.L.W.*X&X$X$X$X$X$X$XT.V.B.J.U.K.J.n.x.i.-.-. . ...o.X...C +XBXBXBXcXmXmXBXNXNXNXoXoXFXLXLXLXLXLX",
"HXCXCXBXNXNXcXNXNXCXHXHXVXNX>X3.k.P.P.Q.$X$XT.T.L.K.V.U.L.K.K.m.x.x.z.-.| | -.| ......C .XVXBXBXBXmXUXBXNXNXNXNXoXNXKXLXJXLXLXLX",
"CXCXNXBXNXNXNXCXIXPXLXKXBXcXVXNX4.c.P.P.$XY.L.n.n.x.m.B.K.K.x.z.p.3.;.| | :.:.| X...[ }.VXBXBXUXcXcXcXBXcXNXNXcX>XVXKXLXPXLXLXLX"
};
