/* XPM */
static char *_2bae5187fad46eed1304b58302e66e7ABQsGBKFWahBIqJk[] = {
/* columns rows colors chars-per-pixel */
"64 64 5 1 ",
"  c black",
". c #383818",
"X c #787040",
"o c #6ABE30",
"O c #C8A860",
/* pixels */
"oooooooooooooooooooooooooooooooooooooooooooooooooooooooooooooooo",
"oooooooooooooooooooooooooooooooooooooooooooooooooooooooooooooooo",
"oooooooooooooooooooooooooooooooooooooooooooooooooooooooooooooooo",
"oooooooooooooooooooooooooooooooooooooooooooooooooooooooooooooooo",
"oooooooooooooooooooooooo............oooooooooooooooooooooooooooo",
"oooooooooooooooooooooooo............oooooooooooooooooooooooooooo",
"oooooooooooooooooooooooo............oooooooooooooooooooooooooooo",
"oooooooooooooooooooooooo............oooooooooooooooooooooooooooo",
"oooooooooooooooo............OOOOOOOO........oooooooooooooooooooo",
"oooooooooooooooo............OOOOOOOO........oooooooooooooooooooo",
"oooooooooooooooo............OOOOOOOO........oooooooooooooooooooo",
"oooooooooooooooo............OOOOOOOO........oooooooooooooooooooo",
"oooooooooooo............OOOOOOOOOOOOOOOOXXXX....oooooooooooooooo",
"oooooooooooo............OOOOOOOOOOOOOOOOXXXX....oooooooooooooooo",
"oooooooooooo............OOOOOOOOOOOOOOOOXXXX....oooooooooooooooo",
"oooooooooooo............OOOOOOOOOOOOOOOOXXXX....oooooooooooooooo",
"oooooooo....XXXXOOOO....OOOOOOOOOOOOXXXXXXXX....    oooooooooooo",
"oooooooo....XXXXOOOO....OOOOOOOOOOOOXXXXXXXX....    oooooooooooo",
"oooooooo....XXXXOOOO....OOOOOOOOOOOOXXXXXXXX....    oooooooooooo",
"oooooooo....XXXXOOOO....OOOOOOOOOOOOXXXXXXXX....    oooooooooooo",
"oooooooo........OOOOOOOOXXXXOOOOXXXXOOOO....    XXXX    oooooooo",
"oooooooo........OOOOOOOOXXXXOOOOXXXXOOOO....    XXXX    oooooooo",
"oooooooo........OOOOOOOOXXXXOOOOXXXXOOOO....    XXXX    oooooooo",
"oooooooo........OOOOOOOOXXXXOOOOXXXXOOOO....    XXXX    oooooooo",
"oooo....XXXX    XXXXOOOOOOOO........        ........    oooooooo",
"oooo....XXXX    XXXXOOOOOOOO........        ........    oooooooo",
"oooo....XXXX    XXXXOOOOOOOO........        ........    oooooooo",
"oooo....XXXX    XXXXOOOOOOOO........        ........    oooooooo",
"oooo    ....    ....XXXXOOOOXXXXOOOOXXXX....XXXXXXXX....    oooo",
"oooo    ....    ....XXXXOOOOXXXXOOOOXXXX....XXXXXXXX....    oooo",
"oooo    ....    ....XXXXOOOOXXXXOOOOXXXX....XXXXXXXX....    oooo",
"oooo    ....    ....XXXXOOOOXXXXOOOOXXXX....XXXXXXXX....    oooo",
"oooo    XXXXOOOO........XXXXOOOOXXXX    XXXXXXXXXXXX        oooo",
"oooo    XXXXOOOO........XXXXOOOOXXXX    XXXXXXXXXXXX        oooo",
"oooo    XXXXOOOO........XXXXOOOOXXXX    XXXXXXXXXXXX        oooo",
"oooo    XXXXOOOO........XXXXOOOOXXXX    XXXXXXXXXXXX        oooo",
"oooo    ....XXXXOOOO....OOOOXXXX....    ....XXXX    ....    oooo",
"oooo    ....XXXXOOOO....OOOOXXXX....    ....XXXX    ....    oooo",
"oooo    ....XXXXOOOO....OOOOXXXX....    ....XXXX    ....    oooo",
"oooo    ....XXXXOOOO....OOOOXXXX....    ....XXXX    ....    oooo",
"oooo    ............    ........XXXXXXXX    ............    oooo",
"oooo    ............    ........XXXXXXXX    ............    oooo",
"oooo    ............    ........XXXXXXXX    ............    oooo",
"oooo    ............    ........XXXXXXXX    ............    oooo",
"oooo    ........        ....XXXX........        ........    oooo",
"oooo    ........        ....XXXX........        ........    oooo",
"oooo    ........        ....XXXX........        ........    oooo",
"oooo    ........        ....XXXX........        ........    oooo",
"oooooooo    ....        ................                oooooooo",
"oooooooo    ....        ................                oooooooo",
"oooooooo    ....        ................                oooooooo",
"oooooooo    ....        ................                oooooooo",
"oooooooooooo                ........            oooooooooooooooo",
"oooooooooooo                ........            oooooooooooooooo",
"oooooooooooo                ........            oooooooooooooooo",
"oooooooooooo                ........            oooooooooooooooo",
"oooooooooooooooooooooooo                oooooooooooooooooooooooo",
"oooooooooooooooooooooooo                oooooooooooooooooooooooo",
"oooooooooooooooooooooooo                oooooooooooooooooooooooo",
"oooooooooooooooooooooooo                oooooooooooooooooooooooo",
"oooooooooooooooooooooooooooooooooooooooooooooooooooooooooooooooo",
"oooooooooooooooooooooooooooooooooooooooooooooooooooooooooooooooo",
"oooooooooooooooooooooooooooooooooooooooooooooooooooooooooooooooo",
"oooooooooooooooooooooooooooooooooooooooooooooooooooooooooooooooo"
};
