/* XPM */
static char *_c9906a98a264b78cefb1c1e3da1ee2eVXAL61tQKhR9nwTt[] = {
/* columns rows colors chars-per-pixel */
"16 16 94 2 ",
"   c #5E5A4C",
".  c #5F5B4C",
"X  c #5A5648",
"o  c #544F3D",
"O  c #56513E",
"+  c #5B5749",
"@  c #817D6E",
"#  c #827E6F",
"$  c #595546",
"%  c #5E5A49",
"&  c #837F70",
"*  c #726E60",
"=  c #736F61",
"-  c #585444",
";  c #5B5747",
":  c #747062",
">  c #716D60",
",  c #545041",
"<  c #555142",
"1  c #716D5F",
"2  c #706C5F",
"3  c #6D695C",
"4  c #504C3E",
"5  c #504C3D",
"6  c #6C685B",
"7  c #706D5F",
"8  c #686558",
"9  c #646155",
"0  c #4D493B",
"q  c #4D493A",
"w  c #625F53",
"e  c #696658",
"r  c #5E5B4F",
"t  c #5E5B50",
"y  c #58564B",
"u  c #484537",
"i  c #4A4638",
"p  c #565349",
"a  c #413E34",
"s  c #3E3C32",
"d  c #3C3A30",
"f  c #474334",
"g  c #4B4736",
"h  c #413E33",
"j  c #4D4939",
"k  c #555245",
"l  c #575346",
"z  c #565346",
"x  c #565345",
"c  c #565245",
"v  c #5A5748",
"b  c #535043",
"n  c #4A4637",
"m  c #807C6D",
"M  c #7C7869",
"N  c #7C7769",
"B  c #7B7769",
"V  c #7C786A",
"C  c #7D796A",
"Z  c #7E7A6B",
"A  c #7F7B6C",
"S  c #7E7A6C",
"D  c #575345",
"F  c #545043",
"G  c #726E61",
"H  c #706C5E",
"J  c #504C40",
"K  c #4D4A3D",
"L  c #6D6A5C",
"P  c #716E60",
"I  c #6E6A5D",
"U  c #4E4A3E",
"Y  c #49463A",
"T  c #696558",
"R  c #4A463A",
"E  c #454236",
"W  c #5F5D51",
"Q  c #676457",
"!  c #686457",
"~  c #615E52",
"^  c #464337",
"/  c #4E4C42",
"(  c #555348",
")  c #565449",
"_  c #57544A",
"`  c #57554A",
"'  c #58554A",
"]  c #504E44",
"[  c #434034",
"{  c #444134",
"}  c #464235",
"|  c #454135",
" . c #4B4737",
".. c white",
/* pixels */
"          . X o O + .           ",
"@ @ @ @ @ @ # $ % & @ @ @ @ @ @ ",
"* * * * * * = - ; : * * * * * * ",
"= = = = = = > , < 1 = = = = = = ",
"2 2 2 2 2 2 3 4 5 6 1 1 1 1 7 7 ",
"8 8 8 8 8 8 9 0 q w e 8 8 8 8 8 ",
"r r r r r t y u i p t r r r r r ",
"a s s s s s d f g d s s s s s h ",
"j k l z x c c X v c k k k k b n ",
"+ m M N B N M B M V C C Z A S D ",
"F * G = = = = = = G G G G = H J ",
"K L P * * * * * * * * P > > I U ",
"Y 9 8 8 T e e e e T 8 8 8 8 9 R ",
"E W Q Q Q Q Q Q Q Q Q Q Q ! ~ ^ ",
"h / ( ) _ ` ' ' ' ` ` ` _ ) ] [ ",
"g { } } } } } } } } } } } } |  ."
};
