/* XPM */
static char *_f05b2ff50ba492f91582d056b7682dbdjPpGgSL0gPhY6qz[] = {
/* columns rows colors chars-per-pixel */
"16 16 133 2 ",
"   c #5E5A4C",
".  c #5F5B4C",
"X  c #5A5648",
"o  c #544F3D",
"O  c #56513E",
"+  c #5B584A",
"@  c #817D6E",
"#  c #827E6F",
"$  c #595546",
"%  c #5E5A49",
"&  c #837F70",
"*  c #726E60",
"=  c #736F61",
"-  c #585444",
";  c #5B5747",
":  c #747062",
">  c #726E61",
",  c #716D60",
"<  c #545041",
"1  c #555142",
"2  c #716D5F",
"3  c #6A675A",
"4  c #706C5F",
"5  c #6B685B",
"6  c #4E4B3D",
"7  c #504C3D",
"8  c #6C685B",
"9  c #6D6A5C",
"0  c #5E5B4F",
"q  c #5D5A4E",
"w  c #686558",
"e  c #504D42",
"r  c #544F3B",
"t  c #4F4B3C",
"y  c #625F53",
"u  c #696558",
"i  c #676457",
"p  c #444137",
"a  c #575549",
"s  c #696659",
"d  c #5E5B50",
"f  c #4A473C",
"g  c #676045",
"h  c #4D493A",
"j  c #565349",
"k  c #565449",
"l  c #3F3C30",
"z  c #4D4A3F",
"x  c #413E34",
"c  c #3E3C32",
"v  c #403D33",
"b  c #434035",
"n  c #3D3A2F",
"m  c #605A41",
"M  c #4D4937",
"N  c #3C3A30",
"B  c #3E3B31",
"V  c #413D31",
"C  c #55503A",
"Z  c #4A4635",
"A  c #555245",
"S  c #534F3F",
"D  c #635D42",
"F  c #676145",
"G  c #5C563F",
"H  c #535042",
"J  c #5C594A",
"K  c #565245",
"L  c #595547",
"P  c #5E5A4A",
"I  c #4A4637",
"U  c #5B5749",
"Y  c #7B7668",
"T  c #6B6756",
"R  c #6F6A58",
"E  c #696556",
"W  c #7C786A",
"Q  c #8D8979",
"!  c #7D796A",
"~  c #7E7A6B",
"^  c #7F7A6C",
"/  c #575345",
"(  c #545043",
")  c #787465",
"_  c #7B7768",
"`  c #7A7667",
"'  c #777365",
"]  c #797566",
"[  c #706C5E",
"{  c #504D3F",
"}  c #4D4A3D",
"|  c #716E60",
" . c #6E6A5D",
".. c #4E4B3E",
"X. c #49463A",
"o. c #646155",
"O. c #696658",
"+. c #605D51",
"@. c #4A463A",
"#. c #454236",
"$. c #5F5D51",
"%. c #656255",
"&. c #59564B",
"*. c #46443B",
"=. c #444135",
"-. c #46443A",
";. c #464337",
":. c #413E33",
">. c #4E4C42",
",. c #555348",
"<. c #57554A",
"1. c #58554A",
"2. c #4D4B41",
"3. c #454238",
"4. c #494638",
"5. c #4A4638",
"6. c #524E3B",
"7. c #6B6448",
"8. c #494637",
"9. c #3F3C31",
"0. c #4B4736",
"q. c #444134",
"w. c #454235",
"e. c #464235",
"r. c #434033",
"t. c #5A543E",
"y. c #70694A",
"u. c #716A4B",
"i. c #726B4C",
"p. c #736C4D",
"a. c #615B42",
"s. c #4D4837",
"d. c white",
/* pixels */
"          . X o O + .           ",
"@ @ @ @ @ @ # $ % & @ @ @ @ @ @ ",
"* * * * * * = - ; : * * * * > * ",
"= = = = = = , < 1 2 = = * * 3 * ",
"4 4 4 4 4 4 5 6 7 8 2 2 9 0 q 2 ",
"w w w w w w e r t y u w i p a s ",
"0 0 0 0 0 d f g h j d d k l z d ",
"x c v b b b n m M N c B V C Z v ",
"h A S D F G H J X K A A L P L I ",
"U @ Y T R E W Q @ W ! ! ~ ^ ~ / ",
"( * ) W _ ` ' ] ' * > > > = [ { ",
"} 9 2 2 2 , * | * * * | * *  ...",
"X.o.w w u O.O.O.s s s s o.+.+.@.",
"#.$.i i i i i i %.y d &.*.=.-.;.",
":.>.,.k <.<.1.1.2.3.4.5.6.7.8.9.",
"0.q.w.w.w.w.w.e.r.t.y.u.i.p.a.s."
};
