/* XPM */
static char *ebb5cfa1ffb3490ff262c092687cf4bcSMiEQp4vCZHffA1R[] = {
/* columns rows colors chars-per-pixel */
"16 16 8 1 ",
"  c #686868",
". c #747474",
"X c gray50",
"o c #3DE0E5",
"O c #65F5E3",
"+ c gray56",
"@ c #9EFEEB",
"# c #D5FFF6",
/* pixels */
"+XX+X..X. ..X+++",
"XX.X ++++XX   X.",
"X.  O.X  ..X@OXX",
"+++X+XX@oX+XX+..",
".XX..  .+X.X+.XX",
"X+XX #@XX.#@. .+",
".XX#@OOo+XOoXXXX",
".  XX+++   ..+++",
"+@OX+X. #@X.XX+.",
"XX+X X.@oooX+++X",
" X.XO.  .++  X..",
"XXXXX++++ .@o++X",
"X..  ++.@#@OOoX.",
"++X@oXXX+ooX.XXX",
"X..X+++XX++X...X",
"XXXXXX.+XXXXXX++"
};
