/* XPM */
static char *_9883b324b9a4a80ecf533a90d206881DhH202pgx3207zTG[] = {
/* columns rows colors chars-per-pixel */
"16 16 150 2 ",
"   c #6F4839",
".  c #6F4939",
"X  c #694536",
"o  c #654639",
"O  c #68483A",
"+  c #6A4636",
"@  c #B46D51",
"#  c #B46E51",
"$  c #AF6B4F",
"%  c #6C4738",
"&  c #724B3C",
"*  c #B06C50",
"=  c #B2694B",
"-  c #AF674A",
";  c #6F4838",
":  c #734B3B",
">  c #AF684A",
",  c #AE6649",
"<  c #6D4636",
"1  c #6E4838",
"2  c #AD6649",
"3  c #B0684A",
"4  c #A15F44",
"5  c #B1684A",
"6  c #A56145",
"7  c #664132",
"8  c #694435",
"9  c #A66245",
"0  c #A86347",
"q  c #8B523B",
"w  c #89513A",
"e  c #AF6749",
"r  c #A25F44",
"t  c #704330",
"y  c #67473A",
"u  c #674334",
"i  c #97583F",
"p  c #9F5D43",
"a  c #593627",
"s  c #814C37",
"d  c #A46045",
"f  c #91553C",
"g  c #91553D",
"h  c #92553C",
"j  c #663E2D",
"k  c #825D4E",
"l  c #644133",
"z  c #844D36",
"x  c #92553D",
"c  c #824C36",
"v  c #4F3328",
"b  c #6D4130",
"n  c #553528",
"m  c #513226",
"M  c #543427",
"N  c #583729",
"B  c #573729",
"V  c #4B2F24",
"C  c #795648",
"Z  c #5F4135",
"A  c #4E3024",
"S  c #513225",
"D  c #513529",
"F  c #6C4C40",
"G  c #5E4034",
"H  c #533427",
"J  c #5B3E32",
"K  c #634032",
"L  c #624134",
"P  c #7E5A4B",
"I  c #845F50",
"U  c #725143",
"Y  c #614032",
"T  c #6E4839",
"R  c #6C4637",
"E  c #644132",
"W  c #704A3A",
"Q  c #684536",
"!  c #573A2F",
"~  c #6D4637",
"^  c #B26D50",
"/  c #A0634A",
"(  c #825543",
")  c #895A47",
"_  c #815340",
"`  c #965F48",
"'  c #B57155",
"]  c #B56E51",
"[  c #B36C4E",
"{  c #B36C4F",
"}  c #AE6A4E",
"|  c #6A4435",
" . c #6B4434",
".. c #AD6749",
"X. c #B56B4D",
"o. c #B56D4F",
"O. c #B56C4E",
"+. c #B26A4C",
"@. c #B36B4D",
"#. c #B46B4D",
"$. c #AD6648",
"%. c #694232",
"&. c #654030",
"*. c #B0674A",
"=. c #A96447",
"-. c #674131",
";. c #5F3C2D",
":. c #9B5B41",
">. c #A26044",
",. c #A36044",
"<. c #94573E",
"1. c #603D2E",
"2. c #58382B",
"3. c #93563D",
"4. c #A15E43",
"5. c #A05E43",
"6. c #9D5C42",
"7. c #98593F",
"8. c #895039",
"9. c #633A2A",
"0. c #56372A",
"q. c #633B2A",
"w. c #5B392B",
"e. c #513327",
"r. c #764531",
"t. c #834D36",
"y. c #854E37",
"u. c #864E38",
"i. c #864F38",
"p. c #874F38",
"a. c #734430",
"s. c #5C392A",
"d. c #5F3D2F",
"f. c #5E3E31",
"g. c #664639",
"h. c #896252",
"j. c #5C3D30",
"k. c #4D3125",
"l. c #5B3D32",
"z. c #55372B",
"x. c #58392C",
"c. c #53362A",
"v. c #6F4E41",
"b. c #906757",
"n. c #926958",
"m. c #946A59",
"M. c #966B5A",
"N. c #7A5648",
"B. c #5C3F34",
"V. c white",
/* pixels */
"          . X o O +             ",
"@ @ @ @ @ # $ % & * @ @ @ @ # @ ",
"= = = = = = - ; : > = = = = = = ",
"= = = = = = , < 1 2 = = 3 3 4 5 ",
", , , , , , 6 7 8 9 - - 0 q w e ",
"4 4 4 4 4 r t y u i r r p a s d ",
"f g f f f h j k l z x x c v b x ",
"n m M N B N V C Z A m S D F G H ",
"J K L P I U Y T R l E E X W Q ! ",
"~ ^ / ( ) _ ` ' ] [ { { { { } | ",
" ...X.o.O.O.+.@.#.= = = = = $.%.",
"&.0 3 *.3 3 3 3 3 3 3 3 3 3 =.-.",
";.:.r r >.,.,.,.,.,.,.,.:.<.<.1.",
"2.3.4.5.5.4.4.5.6.7.f 8.9.0.q.w.",
"e.r.t.y.u.i.p.p.a.s.d.f.g.h.j.k.",
"l.z.x.x.x.x.x.x.c.v.b.n.m.M.N.B."
};
