/* XPM */
static char *_2a87486ecf84c21b8fdaa7e7151f8d09hmDtsHRSY1h87fN[] = {
/* columns rows colors chars-per-pixel */
"16 16 100 2 ",
"   c #6F4839",
".  c #6F4939",
"X  c #694435",
"o  c #654639",
"O  c #68473A",
"+  c #6A4536",
"@  c #B46D51",
"#  c #B46E51",
"$  c #AF6B4F",
"%  c #6C4738",
"&  c #724B3B",
"*  c #B06C50",
"=  c #B2694B",
"-  c #AF674A",
";  c #6F4838",
":  c #734B3B",
">  c #AF684A",
",  c #AE6649",
"<  c #6D4636",
"1  c #6E4838",
"2  c #AD6649",
"3  c #A86346",
"4  c #694334",
"5  c #A66245",
"6  c #AE6749",
"7  c #A15F44",
"8  c #A25F44",
"9  c #9B5B40",
"0  c #644031",
"q  c #634032",
"w  c #97593F",
"e  c #A36044",
"r  c #91553C",
"t  c #91553D",
"y  c #92553D",
"u  c #884F38",
"i  c #5C3B2E",
"p  c #5F3E30",
"a  c #844D36",
"s  c #553528",
"d  c #513226",
"f  c #4E3024",
"g  c #573B2F",
"h  c #5C3F33",
"j  c #543527",
"k  c #5B3E32",
"l  c #664233",
"z  c #654233",
"x  c #654133",
"c  c #6B4636",
"v  c #6C4637",
"b  c #644133",
"n  c #644132",
"m  c #634132",
"M  c #563A2E",
"N  c #6D4637",
"B  c #B16C4F",
"V  c #B36C4E",
"C  c #B36B4E",
"Z  c #B26B4E",
"A  c #B36C4F",
"S  c #B46D50",
"D  c #AF6A4E",
"F  c #6A4434",
"G  c #6B4434",
"H  c #AD6749",
"J  c #AD6648",
"K  c #694232",
"L  c #654030",
"P  c #A86347",
"I  c #B0684A",
"U  c #A96347",
"Y  c #674131",
"T  c #5F3C2D",
"R  c #9B5B41",
"E  c #A26044",
"W  c #603C2E",
"Q  c #59382B",
"!  c #93563D",
"~  c #A15E43",
"^  c #A05E43",
"/  c #A15F43",
"(  c #95583E",
")  c #5B3A2C",
"_  c #513327",
"`  c #764531",
"'  c #834D36",
"]  c #854E37",
"[  c #864E37",
"{  c #864F38",
"}  c #874F38",
"|  c #864E38",
" . c #7B4833",
".. c #553629",
"X. c #5B3D32",
"o. c #55372B",
"O. c #58392C",
"+. c #56382B",
"@. c #5C3E32",
"#. c white",
/* pixels */
"          . X o O +             ",
"@ @ @ @ @ # $ % & * @ @ @ @ @ @ ",
"= = = = = = - ; : > = = = = = = ",
"= = = = = = , < 1 2 = = = = = = ",
", , , , , , 3 4 X 5 - - - 6 6 6 ",
"7 7 7 7 7 8 9 0 q w e 8 8 8 8 8 ",
"r t t t t y u i p a y r r r t r ",
"s d d d d d f g h f d d d d d j ",
"k q l l l z x c v b n n m m p M ",
"N B V C C C C Z Z V A A A S D F ",
"G H = = = = = = = = = = = = J K ",
"L P I I I I I I I I I I I - U Y ",
"T R 8 8 E e e e e 8 8 8 8 8 R W ",
"Q ! ~ ^ ^ ~ ~ ~ ~ ~ ~ ~ ^ / ( ) ",
"_ ` ' ] [ { } } } { { | ] ]  ...",
"X.o.O.O.O.O.O.O.O.O.O.O.O.O.+.@."
};
